<svg xmlns="http://www.w3.org/2000/svg" viewBox="0 0 1513.23 931.72"><defs><style>.cls-1,.cls-11,.cls-15,.cls-18,.cls-7{fill:none;}.cls-1,.cls-10,.cls-11,.cls-12,.cls-13,.cls-14,.cls-15,.cls-16,.cls-17,.cls-18,.cls-19,.cls-2,.cls-20,.cls-21,.cls-22,.cls-3,.cls-4,.cls-6,.cls-7,.cls-8,.cls-9{stroke:#1d1d1b;}.cls-1,.cls-11,.cls-2,.cls-3,.cls-4{stroke-miterlimit:10;}.cls-1,.cls-10,.cls-11,.cls-12,.cls-13,.cls-14,.cls-15,.cls-16,.cls-19,.cls-2,.cls-20,.cls-21,.cls-22,.cls-3,.cls-4,.cls-6,.cls-7,.cls-8,.cls-9{stroke-width:2px;}.cls-2{fill:#8da0d2;}.cls-3,.cls-6{fill:#8cab66;}.cls-4{fill:#ea7f75;}.cls-17,.cls-5{fill:#1d1d1b;}.cls-10,.cls-12,.cls-13,.cls-14,.cls-15,.cls-16,.cls-17,.cls-18,.cls-19,.cls-20,.cls-21,.cls-22,.cls-6,.cls-7,.cls-8,.cls-9{stroke-linejoin:round;}.cls-8{fill:#f6a006;}.cls-9{fill:#e97f75;}.cls-10{fill:#fbdeda;}.cls-10,.cls-11,.cls-13,.cls-15{stroke-linecap:round;}.cls-12{fill:#e8d0c1;}.cls-13,.cls-14{fill:#f2b1b7;}.cls-16{fill:#461a00;}.cls-19{fill:#2d440f;}.cls-20{fill:#fff29b;}.cls-21{fill:#ea590c;}.cls-22{fill:#ee74a0;}</style></defs><g id="Lag_1" data-name="Lag 1"><polyline class="cls-1" points="1449.33 930.72 1314.48 930.72 1309.79 930.72 961.2 930.72"/><polyline class="cls-1" points="427.87 930.72 314.05 930.72 223.1 930.72 110.44 930.72 40.37 930.72"/></g><g id="Lag_3" data-name="Lag 3"><path class="cls-2" d="M189.64,865s-38.51-29.33-43.79-65.93,22.1,8.24,22.1,8.24,3.06,5.71,7,14c.79,1.68,1.6,3.53,2.43,5.51A255.65,255.65,0,0,1,189.64,865Z" transform="translate(-144.18 -222.64)"/><path class="cls-1" d="M188.18,1004.57c16.4,98.6,66.44,148.79,66.44,148.79" transform="translate(-144.18 -222.64)"/><path class="cls-1" d="M188.12,1004.19c-6.44-38.9-7.64-85.33,1.52-139.16" transform="translate(-144.18 -222.64)"/><path class="cls-3" d="M207.19,979.48c-4.87,7.47-18.58,24.56-19,25.09a.3.3,0,0,1,0-.1s0-.08,0-.13a1,1,0,0,0,0-.15c-.36-3.12-2.24-24.5,11.49-38.23C214.45,951.12,212.14,971.9,207.19,979.48Z" transform="translate(-144.18 -222.64)"/><path class="cls-1" d="M188.18,1004.57h0a.5.5,0,0,1,0-.11A.3.3,0,0,0,188.18,1004.57Z" transform="translate(-144.18 -222.64)"/><path class="cls-2" d="M189.64,865c3.39-6,4.9-15.41,5.55-23.31.22-2.63.35-5.11.41-7.24,8.31-43.06,20.7-52.83,26.89-54.94a4.18,4.18,0,0,1,5.37,2.82C234.66,805,189.64,865,189.64,865Z" transform="translate(-144.18 -222.64)"/><path class="cls-2" d="M195.65,827.13s.1,3-.05,7.35c-.06,2.13-.19,4.61-.41,7.24-.65,7.9-2.16,17.26-5.55,23.31a255.65,255.65,0,0,0-12.3-38.19c-5.64-34.27-1.51-46.19,1.72-50a4.32,4.32,0,0,1,5.28-1C197.25,782.67,195.65,827.13,195.65,827.13Z" transform="translate(-144.18 -222.64)"/></g><g id="Lag_4" data-name="Lag 4"><path class="cls-4" d="M317.09,1030.45c-10.8,3.07-24.35-.43-29.21-1.9a18.87,18.87,0,0,1-3.53-1.49c-6.65-3.65-30.26-18-23.1-34.25,3.95-8.95,16.76-.89,29.12,10l0,0A305.25,305.25,0,0,1,317.09,1030.45Z" transform="translate(-144.18 -222.64)"/><path class="cls-1" d="M353.22,1101.44a289,289,0,0,1,14.06,51.92" transform="translate(-144.18 -222.64)"/><path class="cls-1" d="M317.09,1030.45s16.67,23.33,31.38,58.85" transform="translate(-144.18 -222.64)"/><path class="cls-3" d="M353.22,1101.44c-1.2-3.26-2.44-6.45-3.68-9.54l-.07-.14c-.31-.79-.64-1.58-1-2.36l0-.1c-2-5.76-5-20.2,8-34.21C373.27,1037.05,353.22,1101.44,353.22,1101.44Z" transform="translate(-144.18 -222.64)"/><path class="cls-1" d="M349.47,1091.76a24.51,24.51,0,0,1-1-2.36" transform="translate(-144.18 -222.64)"/><path class="cls-4" d="M317.09,1030.45a305.25,305.25,0,0,0-26.69-27.58l0,0c-.76-1-18.55-23.46-.95-31.07,11.51-5,19.62,20.46,24,39.41C315.84,1021.84,317.09,1030.45,317.09,1030.45Z" transform="translate(-144.18 -222.64)"/><path class="cls-4" d="M329.53,1006.42a16.89,16.89,0,0,1-1.21,3.07c-1.69,3.34-6.16,12-11.23,21,0,0-1.25-8.61-3.7-19.27,0,0-6.54-44.4,10.77-43.4C339.34,968.65,331.66,999,329.53,1006.42Z" transform="translate(-144.18 -222.64)"/></g><g id="Lag_5" data-name="Lag 5"><path class="cls-1" d="M408.85,1024.55a604.15,604.15,0,0,1-6.25-73.15h0" transform="translate(-144.18 -222.64)"/><path class="cls-1" d="M407.61,831.74c.15-1.06.32-2.12.51-3.17l5.17-29.21,10.12-57.15" transform="translate(-144.18 -222.64)"/><line class="cls-1" x1="295.24" y1="429.17" x2="287.19" y2="474.61"/><path class="cls-1" d="M448.31,601.58l5.32-30c.49-2.73,1.06-5.45,1.76-8.14A179.23,179.23,0,0,0,459,545.23" transform="translate(-144.18 -222.64)"/><path class="cls-3" d="M448.05,376.74S398.62,332,427.64,323.8,448.05,376.74,448.05,376.74Z" transform="translate(-144.18 -222.64)"/><path class="cls-1" d="M458.31,435.17a468.79,468.79,0,0,1,3.79,74.44c-.27,8.1-.78,15.35-1.41,21.74" transform="translate(-144.18 -222.64)"/><path class="cls-1" d="M448.05,376.74c4.41,19.75,7.58,38,9.79,54.76" transform="translate(-144.18 -222.64)"/><line class="cls-1" x1="303.56" y1="382.16" x2="295.81" y2="425.95"/><line class="cls-1" x1="286.73" y1="477.22" x2="279.95" y2="515.54"/><path class="cls-1" d="M402.6,951.36c-.94-32.86.19-70.62,4.3-113.87.18-1.92.42-3.84.71-5.74" transform="translate(-144.18 -222.64)"/><path class="cls-1" d="M408.85,1024.57c14.76,97.9,49.38,128.79,49.38,128.79" transform="translate(-144.18 -222.64)"/><path class="cls-5" d="M432.31,342.35a13.39,13.39,0,0,1,4.14,2.64,24.58,24.58,0,0,1,3.3,3.68,38,38,0,0,1,4.71,8.71c.33.76.6,1.54.86,2.33l.79,2.35c.42,1.6.88,3.19,1.26,4.81s.69,3.23,1,4.87l.72,4.91-2,.19L446.6,372c-.19-1.61-.47-3.21-.7-4.82s-.66-3.17-1-4.77l-.66-2.34a24,24,0,0,0-.73-2.32,37,37,0,0,0-4.18-8.77,23.25,23.25,0,0,0-3.07-3.79A13.07,13.07,0,0,0,432.31,342.35Z" transform="translate(-144.18 -222.64)"/><path class="cls-3" d="M458.31,435.17c-.13-1.06-.27-2.12-.41-3.19l-.06-.48s29.29-45.07,46.92-25.82C504.76,405.68,518.13,424.79,458.31,435.17Z" transform="translate(-144.18 -222.64)"/><path class="cls-5" d="M487.37,412.41c-2.68,1.38-5.28,2.89-7.84,4.46s-5.07,3.24-7.51,5-4.79,3.61-7,5.58a57,57,0,0,0-6.16,6.38l-1.53-1.29a58.2,58.2,0,0,1,6.73-6.24c2.39-1.88,4.89-3.62,7.43-5.26s5.16-3.14,7.82-4.58S484.62,413.64,487.37,412.41Z" transform="translate(-144.18 -222.64)"/><path class="cls-6" d="M462.1,509.61s-50.3-21.1-41.51-35.56S462.1,509.61,462.1,509.61Z" transform="translate(-144.18 -222.64)"/><polygon class="cls-5" points="289.3 263.33 318.56 286.2 317.29 287.74 289.3 263.33"/><path class="cls-6" d="M459,545.23c.1-.71.21-1.45.32-2.21.49-3.5,1-7.39,1.39-11.67,0,0,17.51-25.32,33.84-13.68C494.53,517.67,507.71,526.79,459,545.23Z" transform="translate(-144.18 -222.64)"/><path class="cls-5" d="M480.83,523.68a12.88,12.88,0,0,0-3.49,1.2c-.56.25-1.09.57-1.63.87s-1,.64-1.55,1a33.9,33.9,0,0,0-5.52,4.84A56.13,56.13,0,0,0,464,537.3l-2,3.07-1.86,3.17-1.72-1,2.12-3.11,2.27-3a55.48,55.48,0,0,1,5.11-5.51,34.22,34.22,0,0,1,5.95-4.57c.53-.32,1.09-.6,1.64-.9s1.12-.55,1.71-.77A13.17,13.17,0,0,1,480.83,523.68Z" transform="translate(-144.18 -222.64)"/><path class="cls-6" d="M448.31,601.58l-.24,1.38-.33,1.84s-49.09-15.54-38.26-30.23S448.31,601.58,448.31,601.58Z" transform="translate(-144.18 -222.64)"/><polygon class="cls-5" points="303.33 381.15 277.31 362.25 304.45 379.5 303.33 381.15"/><path class="cls-6" d="M480.8,625.06c-.93,5.16-8.09,14.65-41.38,26.75l.17-1,.4-2.25s15.3-37.63,37.58-29A5,5,0,0,1,480.8,625.06Z" transform="translate(-144.18 -222.64)"/><path class="cls-5" d="M464.47,628.34a38.77,38.77,0,0,0-7.3,4.3,60,60,0,0,0-6.43,5.48,68.23,68.23,0,0,0-5.56,6.33c-.9,1.07-1.65,2.27-2.48,3.39s-1.51,2.36-2.27,3.54l-1.68-1.08c.85-1.16,1.66-2.34,2.54-3.48s1.75-2.28,2.73-3.33a69.56,69.56,0,0,1,6-6.1,58.8,58.8,0,0,1,6.83-5.16A39,39,0,0,1,464.47,628.34Z" transform="translate(-144.18 -222.64)"/><path class="cls-6" d="M431.37,697.25l-.27,1.54-.19,1.07C418.66,704.2,391.12,680,398.37,669S431.37,697.25,431.37,697.25Z" transform="translate(-144.18 -222.64)"/><path class="cls-5" d="M410.16,681.46c3.29,3.14,6.69,6.17,10.22,9,1.75,1.43,3.55,2.8,5.41,4.08a31.89,31.89,0,0,0,5.73,3.32l-.84,1.82a34.29,34.29,0,0,1-5.79-3.94c-1.8-1.44-3.51-3-5.17-4.53C416.39,688.11,413.22,684.83,410.16,681.46Z" transform="translate(-144.18 -222.64)"/><path class="cls-6" d="M460.82,738.23a13.64,13.64,0,0,1-5.23,1H439.44a35.2,35.2,0,0,1-4.7-.29c-3.13-.42-9.6-.76-11.33,3.22l.48-2.69.23-1.32v0c.42-.78,16-29.26,38.12-21.65a13.32,13.32,0,0,1,6.89,5.23C471.87,725.94,473.61,732.9,460.82,738.23Z" transform="translate(-144.18 -222.64)"/><path class="cls-5" d="M457.86,726.09a48,48,0,0,0-9.26,1.12,51.54,51.54,0,0,0-8.87,2.77c-1.44.55-2.81,1.28-4.19,1.95s-2.7,1.49-3.94,2.4a43.49,43.49,0,0,0-7,5.9l-1.42-1.41a44.67,44.67,0,0,1,7.62-5.75,46.72,46.72,0,0,1,4.18-2.26c1.46-.61,2.89-1.28,4.4-1.76a51.6,51.6,0,0,1,9.13-2.33A47.28,47.28,0,0,1,457.86,726.09Z" transform="translate(-144.18 -222.64)"/><path class="cls-6" d="M413.29,799.36c-7.72-.85-52.06-30.08-39.21-41.36,12.66-11.11,38.47,39.89,39.19,41.33Z" transform="translate(-144.18 -222.64)"/><path class="cls-5" d="M385.61,774c2.71,1.6,5.34,3.34,7.91,5.17S398.57,783,401,785a92.23,92.23,0,0,1,6.94,6.48,75.79,75.79,0,0,1,6.17,7.3l-1.66,1.13a71.59,71.59,0,0,0-5.62-7.42,92,92,0,0,0-6.5-6.75q-3.42-3.21-7.1-6.16C390.76,777.62,388.24,775.74,385.61,774Z" transform="translate(-144.18 -222.64)"/><path class="cls-6" d="M460.87,810.13c-.11,4.18-3.09,10.15-16.1,15.59a29.44,29.44,0,0,1-7.33,2l-29.83,4.06h0c.73-1.13,28.38-43.32,49.39-28.88A8.71,8.71,0,0,1,460.87,810.13Z" transform="translate(-144.18 -222.64)"/><polygon class="cls-5" points="263.43 609.11 263.42 610.11 263.42 608.11 263.43 609.11"/><path class="cls-5" d="M407.62,831.73l3.59-3.32,3.72-3.2c2.54-2.06,5.11-4.09,7.85-5.91a67.46,67.46,0,0,1,8.5-5,48.76,48.76,0,0,1,4.57-2c.79-.28,1.58-.55,2.4-.77a15.88,15.88,0,0,1,2.58-.53l.1,2a16.58,16.58,0,0,0-2.23.36c-.77.17-1.53.38-2.29.61-1.52.48-3,1-4.5,1.67a67.45,67.45,0,0,0-8.59,4.49c-2.79,1.67-5.45,3.55-8.08,5.46l-3.86,3Z" transform="translate(-144.18 -222.64)"/><path class="cls-6" d="M402.59,906.65a62.42,62.42,0,0,1-24.31-2.9,19.35,19.35,0,0,1-6.1-3.35c-5.69-4.62-18-16.09-12.52-24.68C366.74,864.71,402.59,906.65,402.59,906.65Z" transform="translate(-144.18 -222.64)"/><path class="cls-5" d="M374.53,891.56a73.06,73.06,0,0,0,6.52,4.68,78.17,78.17,0,0,0,6.93,4,68.18,68.18,0,0,0,7.27,3.23,56.63,56.63,0,0,0,7.58,2.23l-.47,1.94a57.91,57.91,0,0,1-7.67-2.78,69.07,69.07,0,0,1-7.2-3.74c-2.32-1.38-4.56-2.86-6.73-4.46A72.37,72.37,0,0,1,374.53,891.56Z" transform="translate(-144.18 -222.64)"/><path class="cls-6" d="M427.49,937.11s-5.21,7.69-24.89,14.28h0v0c.37-1.4,11.21-42.29,26.89-41.57a5.54,5.54,0,0,1,4.38,2.59C436.37,916.29,437.47,924.8,427.49,937.11Z" transform="translate(-144.18 -222.64)"/><polygon class="cls-7" points="258.42 728.75 258.42 728.76 258.41 728.76 258.42 728.75"/><polygon class="cls-5" points="282.3 700.53 258.42 728.74 280.74 699.28 282.3 700.53"/><polygon class="cls-5" points="259.13 729.46 258.41 728.76 257.72 728.05 259.13 729.46"/><path class="cls-6" d="M405,992.35c-9.58,5.65-22.3,0-22.3,0s-28.89-15.05-22.31-27.47S405,992.35,405,992.35Z" transform="translate(-144.18 -222.64)"/><path class="cls-5" d="M380.43,981.44a29.62,29.62,0,0,0,5.31,4.37,33.12,33.12,0,0,0,6.05,3.15,31.63,31.63,0,0,0,6.51,1.87,35,35,0,0,0,6.7.53l0,2a36.44,36.44,0,0,1-7-1.07,33.19,33.19,0,0,1-6.6-2.41,33.71,33.71,0,0,1-5.93-3.67A29.85,29.85,0,0,1,380.43,981.44Z" transform="translate(-144.18 -222.64)"/><path class="cls-6" d="M408.85,1024.57h0c.5-1.17,21.07-49.1,44.49-31.45S409.82,1024.37,408.85,1024.57Z" transform="translate(-144.18 -222.64)"/><path class="cls-7" d="M408.85,1024.56h0Z" transform="translate(-144.18 -222.64)"/><path class="cls-5" d="M408.17,1023.83c2.46-2.15,5-4.15,7.57-6.11s5.22-3.81,7.92-5.59,5.45-3.47,8.26-5,5.7-3,8.62-4.38c-2.85,1.5-5.66,3.07-8.37,4.81s-5.37,3.52-7.94,5.44-5.1,3.89-7.56,5.95-4.86,4.18-7.14,6.4Z" transform="translate(-144.18 -222.64)"/><polygon class="cls-5" points="264.67 802.93 264.66 801.93 264.67 800.93 264.67 802.93"/></g><g id="Lag_6" data-name="Lag 6"><path class="cls-8" d="M523.75,861.71,513.21,851a33.56,33.56,0,0,1-7-10.52,130.21,130.21,0,0,1-6.1-17.59v0c-2.73-10.66-3.19-21.24,4.88-23C522,796.14,523.75,861.71,523.75,861.71Z" transform="translate(-144.18 -222.64)"/><line class="cls-7" x1="427.05" y1="700.94" x2="379.57" y2="639.07"/><line class="cls-7" x1="427.87" y1="702.01" x2="427.05" y2="700.95"/><path class="cls-8" d="M523.75,861.71s-56.16,20.94-62.88-3.24c-4.31-15.49,22.72-9.8,42.7-3.71h0C514.78,858.17,523.75,861.71,523.75,861.71Z" transform="translate(-144.18 -222.64)"/><path class="cls-8" d="M523.75,861.71s-9-3.54-20.16-6.94h0c-1-.42-36.86-15.56-28.24-38.88a9.66,9.66,0,0,1,9.07-6.41c4.34,0,10.07,2.76,15.7,13.36v0a130.21,130.21,0,0,0,6.1,17.59,33.56,33.56,0,0,0,7,10.52Z" transform="translate(-144.18 -222.64)"/></g><g id="Lag_12" data-name="Lag 12"><path class="cls-7" d="M1283.32,688c-1.94-11.66-3.3-23.45-4.18-35.2-.07-.89-.13-1.79-.19-2.69a516.76,516.76,0,0,1-.79-53.48" transform="translate(-144.18 -222.64)"/><path class="cls-6" d="M1343.82,304.11s-35.79-55.54-8.41-79.32a4.59,4.59,0,0,1,5.36-.52C1348.82,229.13,1369.49,247.89,1343.82,304.11Z" transform="translate(-144.18 -222.64)"/><path class="cls-7" d="M1310.89,422.79C1317,404,1322.3,386,1326.83,369.91c10.85-38.53,17-65.8,17-65.8" transform="translate(-144.18 -222.64)"/><path class="cls-7" d="M1310.89,422.8c-3.62,11.22-7.49,22.73-11.6,34.28a196.88,196.88,0,0,0-7.38,26.18l-.72,3.53c-2.29,11.4-5.17,27.39-7.68,46.39-2.44,18.53-4.52,39.92-5.33,62.69" transform="translate(-144.18 -222.64)"/><path class="cls-7" d="M1297.19,741.45a286.75,286.75,0,0,1-13.42-50.71" transform="translate(-144.18 -222.64)"/><polygon class="cls-5" points="1198.65 81.53 1196.28 29.25 1200.64 81.41 1198.65 81.53"/><path class="cls-6" d="M1387.59,343.78c-2.59,5.87-13.65,19.19-60.76,26.13h0c.76-1.21,29.71-45.78,59.32-30.31A3.24,3.24,0,0,1,1387.59,343.78Z" transform="translate(-144.18 -222.64)"/><path class="cls-5" d="M1326.24,369.11c3.38-2.44,6.83-4.7,10.35-6.89s7.11-4.23,10.78-6.14a95.5,95.5,0,0,1,11.31-5.08,44.9,44.9,0,0,1,12-2.88,44.2,44.2,0,0,0-11.83,3.35,92.57,92.57,0,0,0-11,5.49q-5.36,3.06-10.45,6.52c-3.39,2.3-6.74,4.71-9.94,7.22Z" transform="translate(-144.18 -222.64)"/><path class="cls-6" d="M1310.89,422.79h0c-48.61-25.83-41.64-53.36-38.64-60.72a2.44,2.44,0,0,1,2.91-1.44c26.94,7.51,35.53,60.88,35.72,62.14A0,0,0,0,0,1310.89,422.79Z" transform="translate(-144.18 -222.64)"/><path class="cls-5" d="M1281.75,380.4a58.34,58.34,0,0,1,9.32,9,109.59,109.59,0,0,1,7.79,10.4c2.43,3.59,4.7,7.29,6.84,11.06s4.19,7.58,6.09,11.52l-1.82.81c-1.71-3.91-3.6-7.8-5.59-11.61s-4.09-7.58-6.36-11.24a110.63,110.63,0,0,0-7.33-10.62A58,58,0,0,0,1281.75,380.4Z" transform="translate(-144.18 -222.64)"/><path class="cls-6" d="M1291.19,486.79l0,0c1.27-1.52,48.7-57.73,65.06-39.13C1372.85,466.49,1322,483.33,1291.19,486.79Z" transform="translate(-144.18 -222.64)"/><path class="cls-5" d="M1290.57,486c3.45-2.84,7-5.51,10.6-8.1s7.29-5.07,11.06-7.4,7.63-4.54,11.6-6.52a94.38,94.38,0,0,1,12.26-5.11,94.24,94.24,0,0,0-12,5.55c-3.87,2.12-7.61,4.47-11.28,6.92s-7.23,5.07-10.72,7.77-6.91,5.49-10.19,8.4Z" transform="translate(-144.18 -222.64)"/><path class="cls-6" d="M1283.51,533.18c-25-2.55-55-42.92-37.11-49.58S1283.51,533.18,1283.51,533.18Z" transform="translate(-144.18 -222.64)"/><path class="cls-5" d="M1283,534a106.28,106.28,0,0,1-8.51-6.46,92.54,92.54,0,0,1-7.79-7.29,53.13,53.13,0,0,1-6.57-8.37,22.47,22.47,0,0,1-3.57-9.92,22.16,22.16,0,0,0,4,9.65,51.87,51.87,0,0,0,6.86,7.94,93,93,0,0,0,8,6.82c2.79,2.11,5.69,4.13,8.64,5.94Z" transform="translate(-144.18 -222.64)"/><path class="cls-6" d="M1278.16,596.67a1.22,1.22,0,0,1,0-.27h0c0-.17,0-.34,0-.51h0c2.54-5.78,17.84-38.58,39-39.7a6.09,6.09,0,0,1,6.09,3.87C1328.61,574.8,1301.06,591.9,1278.16,596.67Z" transform="translate(-144.18 -222.64)"/><path class="cls-7" d="M1278.18,595.88c0,.17,0,.34,0,.51h0a1.22,1.22,0,0,0,0,.27l-.35.07S1277.93,596.44,1278.18,595.88Z" transform="translate(-144.18 -222.64)"/><polygon class="cls-5" points="1161.96 346.85 1134.69 374.47 1133.3 373.03 1161.96 346.85"/><polygon class="cls-5" points="1134.68 374.49 1133.63 374.1 1133.31 373.04 1134.68 374.49"/><path class="cls-6" d="M1279,651.27c-10.71,1.12-55.92-34.25-37.86-45.18,17.91-10.84,37.52,44.21,37.85,45.17Z" transform="translate(-144.18 -222.64)"/><path class="cls-5" d="M1254.69,624.49a32.66,32.66,0,0,0,5.13,7.46c2,2.28,4.08,4.46,6.25,6.56,4.35,4.2,8.91,8.21,13.59,12l-1.28,1.53c-4.54-4.1-8.88-8.35-13-12.82-2.06-2.23-4-4.54-5.92-7A32.76,32.76,0,0,1,1254.69,624.49Z" transform="translate(-144.18 -222.64)"/><path class="cls-6" d="M1283.77,690.74c-.09-.51-.17-1-.26-1.55s-.13-.76-.19-1.15c0,0,8.47-34.51,34.63-37.26a3,3,0,0,1,3.29,2.82C1321.52,659.51,1317.7,673.61,1283.77,690.74Z" transform="translate(-144.18 -222.64)"/><path class="cls-5" d="M1282.64,688.7a87.34,87.34,0,0,1,5.28-7.39q2.79-3.54,5.88-6.83c2-2.19,4.19-4.3,6.44-6.29s4.59-3.86,7-5.65c-2.29,1.93-4.55,3.89-6.64,6s-4.12,4.3-6,6.58-3.73,4.64-5.43,7.07a84.6,84.6,0,0,0-4.74,7.48Z" transform="translate(-144.18 -222.64)"/><path class="cls-6" d="M1370.81,1013.56c-.81,7.48-7.3,25.63-44.75,45.43,0,0,5.9-45.85,41.34-48.89A3.13,3.13,0,0,1,1370.81,1013.56Z" transform="translate(-144.18 -222.64)"/><path class="cls-5" d="M1358.56,1023.87a77.23,77.23,0,0,0-9.34,7.57,117.23,117.23,0,0,0-8.35,8.63c-2.59,3-5.12,6.15-7.41,9.43-1.2,1.59-2.26,3.29-3.39,4.94s-2.1,3.39-3.16,5.08l-1.7-1c1.14-1.67,2.24-3.37,3.42-5s2.34-3.29,3.63-4.85c2.45-3.21,5.14-6.24,7.87-9.2s5.7-5.72,8.75-8.34A77.78,77.78,0,0,1,1358.56,1023.87Z" transform="translate(-144.18 -222.64)"/><path class="cls-6" d="M1333.14,1106.74s-65.72-6.09-54.51-25.47c11.07-19.12,53.4,24.33,54.49,25.45Z" transform="translate(-144.18 -222.64)"/><path class="cls-5" d="M1296.24,1090.08a49.28,49.28,0,0,1,10,2,80.5,80.5,0,0,1,9.58,3.68c3.12,1.41,6.15,3,9.13,4.71s5.89,3.5,8.72,5.48l-1.18,1.61c-2.67-2.06-5.46-4-8.31-5.81s-5.78-3.55-8.8-5.09a78.59,78.59,0,0,0-9.3-4.1A47.77,47.77,0,0,0,1296.24,1090.08Z" transform="translate(-144.18 -222.64)"/><path class="cls-7" d="M1296.4,739.29" transform="translate(-144.18 -222.64)"/><path class="cls-7" d="M1296.4,739.29s37.44,103.93,19.43,229.66a184.85,184.85,0,0,0,5.92,79.76c8.28,27.4,17.11,66,16.44,104.65" transform="translate(-144.18 -222.64)"/><path class="cls-6" d="M1320.68,905.71s9.34-31.34,35.5-34.09a3,3,0,0,1,3.29,2.82c.28,5.91-4.86,14.14-38.79,31.27" transform="translate(-144.18 -222.64)"/><path class="cls-5" d="M1320,904.33c2-1.93,4-3.77,6.12-5.58s4.17-3.59,6.3-5.33q6.39-5.22,13.07-10-6.37,5.22-12.41,10.79c-2,1.86-4,3.76-5.94,5.68s-3.87,3.88-5.69,5.87Z" transform="translate(-144.18 -222.64)"/><path class="cls-6" d="M1314.16,986.57c-10.62,1.8-58-30.61-40.67-42.67s40.27,41.72,40.66,42.66" transform="translate(-144.18 -222.64)"/><path class="cls-5" d="M1288.16,961.4a33.16,33.16,0,0,0,5.59,7.11c2.13,2.15,4.36,4.19,6.66,6.15,4.61,3.91,9.42,7.62,14.33,11.09l-1.18,1.61q-7.18-5.68-13.82-12c-2.2-2.11-4.34-4.28-6.35-6.56A33.15,33.15,0,0,1,1288.16,961.4Z" transform="translate(-144.18 -222.64)"/><path class="cls-6" d="M1320.68,876.8s-32.6-2.45-40.86-27.42a3,3,0,0,1,2.06-3.82c5.71-1.53,14.84,1.74,38.8,31.24" transform="translate(-144.18 -222.64)"/><path class="cls-5" d="M1319.49,877.8c-2.31-1.55-4.54-3.15-6.75-4.79s-4.4-3.32-6.55-5q-6.46-5.13-12.59-10.63,6.45,5.11,13.18,9.82,3.38,2.36,6.81,4.6c2.29,1.48,4.62,3,7,4.31Z" transform="translate(-144.18 -222.64)"/><path class="cls-6" d="M1287.61,711.54s-20.91,25.13-46,17.36a3,3,0,0,1-1.91-3.88c2.07-5.55,10-11.09,48-13.48" transform="translate(-144.18 -222.64)"/><path class="cls-5" d="M1287.73,713.08c-2.6,1-5.2,1.88-7.82,2.73s-5.25,1.66-7.89,2.42q-7.92,2.28-16,4.08,7.9-2.28,15.65-5c2.58-.92,5.15-1.88,7.69-2.88s5.09-2,7.55-3.16Z" transform="translate(-144.18 -222.64)"/><path class="cls-6" d="M1312.44,801.56l0,0c1.27-1.52,48.7-57.73,65.06-39.13C1394.1,781.26,1343.28,798.1,1312.44,801.56Z" transform="translate(-144.18 -222.64)"/><path class="cls-5" d="M1311.82,800.77c3.44-2.83,7-5.5,10.6-8.09s7.29-5.07,11.06-7.4,7.63-4.54,11.6-6.53a94.33,94.33,0,0,1,12.26-5.1,94.24,94.24,0,0,0-12,5.55c-3.87,2.12-7.61,4.47-11.28,6.92s-7.23,5.07-10.72,7.76-6.91,5.5-10.19,8.41Z" transform="translate(-144.18 -222.64)"/></g><g id="Lag_14" data-name="Lag 14"><path class="cls-9" d="M1132.64,632.58h0c-7.12,11.23-17.51,21.87-27.25,26.55,0,0,1.24-19.18,5.85-36.31h0c4.07-15.14,10.76-28.68,21.54-26C1146.15,600.18,1142.57,616.94,1132.64,632.58Z" transform="translate(-144.18 -222.64)"/><path class="cls-7" d="M1077.85,717.71c1.76-22.1,27.53-58.57,27.53-58.57" transform="translate(-144.18 -222.64)"/><path class="cls-9" d="M1111.23,622.82h0c-4.61,17.13-5.85,36.31-5.85,36.31s-37-42.95-18.4-59.72C1105.38,582.82,1111.11,622,1111.23,622.82Z" transform="translate(-144.18 -222.64)"/><path class="cls-9" d="M1105.38,659.14c9.74-4.68,20.13-15.32,27.25-26.55h0c.78-.44,39.6-22.26,42.51,2.2C1176.29,652,1105.38,659.14,1105.38,659.14Z" transform="translate(-144.18 -222.64)"/></g><g id="Lag_15" data-name="Lag 15"><polyline class="cls-10" points="1300.51 480.94 1178.92 790.46 1043.19 711.48 1185.64 445.11"/><path class="cls-11" d="M1444.69,703.56s0,0,0,0" transform="translate(-144.18 -222.64)"/><path class="cls-12" d="M1475.56,573.64l-36.8,112.56-5.09,15.55c-18.07-3.46-54.68-11.61-82-22.82.67.22,4.93,1.38-1.2-8.18-1.43-2.23-3.16-6.46-5-11.73-6.65-19.12-14.66-51.89-14.66-51.89s-2.81-31.89,8.82-37.64,13.64,11.77,13.64,11.77l9.22,35.69s25.66-101.06,37.69-97.05c10.54,3.51-.15,53.17-3,65.44,3.36-14,19.36-76.57,35-72.65,11.71,2.93,1.92,37.43-6,60.34l-7.46,20c.62-1.53,3.85-9.56,7.46-20l10.23-27.42s7.34-25.4,21-21.39c12.46,3.66-10.89,65.4-15,76l13.3-32.56s5.34-16.84,16.16-14.43S1475.56,573.64,1475.56,573.64Z" transform="translate(-144.18 -222.64)"/><path class="cls-7" d="M1396.92,586.59l.09-.37a0,0,0,0,1,0,0,2.82,2.82,0,0,0,.07-.31c0-.17.09-.36.13-.55" transform="translate(-144.18 -222.64)"/><path class="cls-7" d="M1396.57,588.07a0,0,0,0,1,0,0v0a.43.43,0,0,0,0,0l0-.12c0-.14.09-.35.15-.62h0c0-.09,0-.19.07-.29" transform="translate(-144.18 -222.64)"/><path class="cls-7" d="M1396.92,586.59l.09-.37a0,0,0,0,1,0,0,2.82,2.82,0,0,0,.07-.31c0-.17.09-.36.13-.55" transform="translate(-144.18 -222.64)"/><path class="cls-7" d="M1418.69,593.29l0-.07a.21.21,0,0,1,0-.06" transform="translate(-144.18 -222.64)"/><path class="cls-7" d="M1441.88,601.71v0l0-.1.16-.41" transform="translate(-144.18 -222.64)"/><line class="cls-7" x1="1289.49" y1="479.12" x2="1289.49" y2="479.11"/><path class="cls-13" d="M1444.69,703.56v0c-.33.07-4.45-.57-11-1.83l5.09-15.55C1449.28,690.43,1444.69,703.56,1444.69,703.56Z" transform="translate(-144.18 -222.64)"/><line class="cls-14" x1="1294.58" y1="463.56" x2="1294.57" y2="463.56"/><path class="cls-13" d="M1351.65,678.93l-.08,0a121.61,121.61,0,0,1-21.75-11.15s3-12.94,15.64-8.73c1.83,5.27,3.56,9.5,5,11.73C1356.58,680.31,1352.32,679.15,1351.65,678.93Z" transform="translate(-144.18 -222.64)"/><path class="cls-5" d="M1377.6,636a46.8,46.8,0,0,0,3.73,7.62,69.52,69.52,0,0,0,4.77,6.91c.87,1.1,1.74,2.2,2.68,3.24s1.89,2.08,2.83,3.14c.46.53,1,1,1.48,1.52l1.48,1.53c1,1,2,2,3,3-1.25-.71-2.47-1.48-3.67-2.29s-2.33-1.71-3.41-2.68a45.73,45.73,0,0,1-6-6.27,39.79,39.79,0,0,1-4.57-7.42A23.92,23.92,0,0,1,1377.6,636Z" transform="translate(-144.18 -222.64)"/></g><g id="Lag_9" data-name="Lag 9"><path class="cls-10" d="M1322.83,1013.18c-5.12,1.51-84.25,22.59-251.28-63.48,24.53,103.42,33.83,203.66,33.83,203.66H572.05s-28.62-111.36-.82-229.77h0a387.18,387.18,0,0,1,15.17-49.7c42.2-119.07,48.51-156.25,115.51-196.35l.09.32c14.79-8.92,32.59-18.14,54.32-28.28l2.12-1c0,.06.06.08.14.08h0c4.59,2.38,114.34,58.26,192.25,2.1a93.87,93.87,0,0,0,21.29,11.77l1.74.69c9.09,3.64,18.84,7.89,28.84,12.49v0c25.19,11.6,53.16,25.9,75.72,37.85,14.55,7.71,26.85,14.45,34.7,18.85a116.38,116.38,0,0,1,19,13.14l79.19,67.15,30.27,25.66" transform="translate(-144.18 -222.64)"/><path class="cls-15" d="M1433.67,701.75" transform="translate(-144.18 -222.64)"/><line class="cls-15" x1="1103.01" y1="620.47" x2="1097.39" y2="615.71"/><path class="cls-15" d="M973.87,663.23c8.78,3.48,18.57,7.75,28.83,12.47" transform="translate(-144.18 -222.64)"/><path class="cls-15" d="M701.91,677.53c14.81-8.87,32.6-17.89,54.41-28" transform="translate(-144.18 -222.64)"/><path class="cls-15" d="M1323.1,1013.1l-.27.08" transform="translate(-144.18 -222.64)"/><path class="cls-15" d="M1351.57,678.9" transform="translate(-144.18 -222.64)"/><path class="cls-12" d="M851.46,427.83s-1.64-24.66-40.68-25.68-44.38,31.32-44.38,31.32,0,39.61,48,39.55C861.19,473,851.46,427.83,851.46,427.83ZM813.6,449H813c-.42,0-.84,0-1.25-.05-29.14-1-32.85-15.55-32.85-15.55s.81-1,2.3-2.47h0a67.15,67.15,0,0,1,7.61-6.58,57.48,57.48,0,0,1,8.65-5.33,43.51,43.51,0,0,1,8.56-3.23,35.86,35.86,0,0,1,7.17-1.1A27.93,27.93,0,0,1,828,418.3a41.32,41.32,0,0,1,6.38,4.34h0c.76.63,1.49,1.27,2.18,1.91l1,1q.5.48,1,1c1.25,1.27,2.35,2.51,3.3,3.66h0a49.65,49.65,0,0,1,4.09,5.6S842.21,449.36,813.6,449Z" transform="translate(-144.18 -222.64)"/><path class="cls-12" d="M975.65,424.13l-2.16,11.13h0l-5.09,26.2-4.92,25.29s-5.49,67.78-57.09,78c-52.6,18.63-95.34-8.77-95.64-8.61-39.1-25-55.43-67.18-61.93-92.11-.51-1.95-1-3.91-1.37-5.88a124.75,124.75,0,0,1-2.57-26.29c0-2.19,0-4.59.06-7.15l21.47,8.74s0,39.61,48,39.55c46.81-.06,37.08-45.19,37.08-45.19s5.41-6.36,12.91-6.61c4-.14,8.53,1.45,13.18,6.61.56.61-3.27,36.92,39.76,36,30.76-.68,34.92-21.23,34.78-32.89Z" transform="translate(-144.18 -222.64)"/><path class="cls-7" d="M709.13,1153.36s-29.59-157,31.78-322.66" transform="translate(-144.18 -222.64)"/><path class="cls-7" d="M1034.59,830.7c15,36.08,27.18,77.79,37,119h0" transform="translate(-144.18 -222.64)"/><path class="cls-16" d="M851.46,310.5c-9.81,17.26-34,31.1-47.81,37.95a62.65,62.65,0,0,1-17.71,5.67c-13,2.1-38.36,8-39.54,22.44-.93,11.39-1.31,32.59-1.47,48.17,0,2.56,0,5-.06,7.15,0,0-26.66-17.84-31.56,2.85s34.13,23.44,34.13,23.44c.41,2,.86,3.93,1.37,5.88,6.5,24.93,22.83,67.14,61.93,92.11-9,47.11-29.44,73.33-41.93,85-5.48,5.12-9.44,7.45-10.22,7.5h0l-.14-.08-2.12,1c-21.73,10.14-39.53,19.36-54.32,28.28l-.09-.32c-2.51-8.26-52-174.81-4.94-297.13,48.25-125.46,145.65-128.51,145.65-128.51h0C843.16,252.7,865.42,285.94,851.46,310.5Z" transform="translate(-144.18 -222.64)"/><path class="cls-16" d="M1008.58,542.89s-29.89,90.66-5.88,132.81v0c-10-4.6-19.75-8.85-28.84-12.49l-1.74-.69a93.94,93.94,0,0,1-32.39-21.37c-30.4-30.61-34.22-74.69-33.36-76.4,51.6-10.23,57.09-78,57.09-78l4.92-25.29s45.36-21.3,35-36.74c-10.22-15.24-29.46,9.92-29.92,10.53l2.16-11.13,7.52-38.66s-18.34-37.35-51.48-44.15c-60.3-8.16-80.23-30.82-80.23-30.82,14-24.56-8.3-57.8-8.83-58.6,1.66.24,151.72,23,170.73,128.5C1032.48,486.48,1008.58,542.89,1008.58,542.89Z" transform="translate(-144.18 -222.64)"/><path class="cls-5" d="M866.25,525.62a30.54,30.54,0,0,0,9.82.69,24.65,24.65,0,0,0,9.19-2.69,28.33,28.33,0,0,0,7.62-5.89,56.3,56.3,0,0,0,6-7.89,30.21,30.21,0,0,1-4.85,8.91,26.16,26.16,0,0,1-3.56,3.73,25.15,25.15,0,0,1-4.32,2.91,22.18,22.18,0,0,1-10,2.48A21.24,21.24,0,0,1,866.25,525.62Z" transform="translate(-144.18 -222.64)"/><path class="cls-17" d="M837.77,389.81V398s-33.52-17.58-63.12,0h-.4C803.62,364.14,837.77,389.81,837.77,389.81Z" transform="translate(-144.18 -222.64)"/><path class="cls-18" d="M774.65,398" transform="translate(-144.18 -222.64)"/><path class="cls-17" d="M953.2,395.21h-.4c-29.6-17.58-63.12,0-63.12,0V387S923.83,361.35,953.2,395.21Z" transform="translate(-144.18 -222.64)"/><path class="cls-14" d="M950.84,650.77c-77.91,56.16-187.66.28-192.25-2.1.78,0,4.74-2.38,10.22-7.5,0,0,108.1,52,170.93,0A94.4,94.4,0,0,0,950.84,650.77Z" transform="translate(-144.18 -222.64)"/><path class="cls-7" d="M950.85,650.76h0" transform="translate(-144.18 -222.64)"/><path class="cls-12" d="M939.74,641.17c-62.83,52-170.93,0-170.93,0,12.49-11.68,32.91-37.9,41.93-85,.3-.16,43,27.24,95.64,8.61C905.52,566.48,909.34,610.56,939.74,641.17Z" transform="translate(-144.18 -222.64)"/><path class="cls-7" d="M876.47,398s-30.76,37-3.54,71.42l-16.88,15.92" transform="translate(-144.18 -222.64)"/><path class="cls-12" d="M931.69,341.32c-60.3-8.16-80.23-30.82-80.23-30.82-9.81,17.26-34,31.1-47.81,37.95a62.65,62.65,0,0,1-17.71,5.67c-13,2.1-38.36,8-39.54,22.44-.93,11.39-1.31,32.59-1.47,48.17l21.47,8.74s5.35-32.35,44.38-31.32,40.68,25.68,40.68,25.68,5.41-6.36,12.91-6.61c4-.14,8.53,1.45,13.18,6.61,0,0,4.81-30.54,37-29.82s36.74,25,36.74,25a41.82,41.82,0,0,1,.78,7.9l23.56-6.78,7.52-38.66S964.83,348.12,931.69,341.32ZM837.77,398s-33.52-17.58-63.12,0h-.4c29.37-33.87,63.52-8.2,63.52-8.2Zm115-2.8c-29.6-17.58-63.12,0-63.12,0V387s34.15-25.66,63.52,8.2Z" transform="translate(-144.18 -222.64)"/><path class="cls-12" d="M968.39,461.47l5.09-26.2h0c.46-.61,19.7-25.77,29.92-10.53C1013.75,440.17,968.39,461.47,968.39,461.47Z" transform="translate(-144.18 -222.64)"/><path class="cls-12" d="M747.44,458.17s-39-2.76-34.13-23.44,31.56-2.85,31.56-2.85A124.75,124.75,0,0,0,747.44,458.17Z" transform="translate(-144.18 -222.64)"/><path class="cls-7" d="M845.89,435.74S842.21,449.36,813.6,449h-.11l-1.1,0-.65,0c-29.14-1-32.85-15.55-32.85-15.55s.81-1,2.3-2.47h0a67.15,67.15,0,0,1,7.61-6.58,57.48,57.48,0,0,1,8.65-5.33,43.51,43.51,0,0,1,8.56-3.23,35.86,35.86,0,0,1,7.17-1.1A27.93,27.93,0,0,1,828,418.3a41.32,41.32,0,0,1,6.38,4.34h0c.76.63,1.49,1.27,2.18,1.91l1,1q.5.48,1,1c1.25,1.27,2.35,2.51,3.3,3.66h0A49.65,49.65,0,0,1,845.89,435.74Z" transform="translate(-144.18 -222.64)"/><path class="cls-19" d="M829.56,432.41a16.57,16.57,0,0,1-16,16.56H813c-.42,0-.84,0-1.25-.05a16.57,16.57,0,1,1,17.82-16.52Z" transform="translate(-144.18 -222.64)"/><path class="cls-5" d="M780.49,431.62a10.14,10.14,0,0,1-1.78-2.93,8.2,8.2,0,0,1-.56-3.3,10.54,10.54,0,0,1,.59-3.18,12.07,12.07,0,0,1,1.41-2.83,11,11,0,0,0-1,6,7.09,7.09,0,0,0,.93,2.72,8.43,8.43,0,0,0,1.82,2.13Z" transform="translate(-144.18 -222.64)"/><path class="cls-5" d="M788.8,414.64a8.38,8.38,0,0,0-1,4.84,7.82,7.82,0,0,0,.61,2.3,9.3,9.3,0,0,0,1.2,2l-1.7,1.06a11.28,11.28,0,0,1-.93-2.63,8.74,8.74,0,0,1-.18-2.74A8.84,8.84,0,0,1,788.8,414.64Z" transform="translate(-144.18 -222.64)"/><path class="cls-5" d="M797.45,411.05a10,10,0,0,0-.43,4,7.18,7.18,0,0,0,.43,1.87,6.79,6.79,0,0,0,.87,1.59l-1.74,1a7.9,7.9,0,0,1-.59-2.24,8.24,8.24,0,0,1,0-2.22A10.56,10.56,0,0,1,797.45,411.05Z" transform="translate(-144.18 -222.64)"/><path class="cls-5" d="M805.31,408.38a13.94,13.94,0,0,0,.11,3.77,5.29,5.29,0,0,0,1.38,3l-1.58,1.23a6.84,6.84,0,0,1-.8-4.19A14.51,14.51,0,0,1,805.31,408.38Z" transform="translate(-144.18 -222.64)"/><path class="cls-5" d="M819.31,408.38a9.16,9.16,0,0,1,1.43,1.36,5.88,5.88,0,0,1,1.07,1.76,3.73,3.73,0,0,1,.16,2.28,4.62,4.62,0,0,1-1.27,2l-1.21-1.6a2.72,2.72,0,0,0,1.07-1,2.47,2.47,0,0,0,.28-1.51A7.11,7.11,0,0,0,819.31,408.38Z" transform="translate(-144.18 -222.64)"/><path class="cls-5" d="M841.8,421.43a12.45,12.45,0,0,1,1.47,4.35,9.24,9.24,0,0,1,0,2.41,9.08,9.08,0,0,1-.62,2.42l-1.76-.95a7.38,7.38,0,0,0,.92-1.79,8.67,8.67,0,0,0,.43-2.06A11.74,11.74,0,0,0,841.8,421.43Z" transform="translate(-144.18 -222.64)"/><polygon class="cls-5" points="690.16 200.01 689.16 200 691.16 200 690.16 200.01"/><path class="cls-5" d="M835,415.76a7.44,7.44,0,0,1,1.29,3.61,5.29,5.29,0,0,1-.25,2.07,5.82,5.82,0,0,1-1,1.91l-1.4-1.42a4.16,4.16,0,0,0,1.68-2.62A6.91,6.91,0,0,0,835,415.76Z" transform="translate(-144.18 -222.64)"/><path class="cls-5" d="M828,411.05a8.94,8.94,0,0,1,1.71,3.64,5.77,5.77,0,0,1,0,2.19,5.46,5.46,0,0,1-1,2.12l-1.44-1.38a3.84,3.84,0,0,0,1-1.21,4.37,4.37,0,0,0,.43-1.65A8.43,8.43,0,0,0,828,411.05Z" transform="translate(-144.18 -222.64)"/><path class="cls-19" d="M930.85,428.9a16.57,16.57,0,1,1-16.57-16.57A16.57,16.57,0,0,1,930.85,428.9Z" transform="translate(-144.18 -222.64)"/><path class="cls-12" d="M951.31,423s-4.53-24.28-36.74-25-37,29.82-37,29.82c.56.61-3.27,36.92,39.76,36,30.76-.68,34.92-21.23,34.78-32.89A41.82,41.82,0,0,0,951.31,423Zm-37,23.74c-22.94.16-31.28-19.23-31.28-19.23a30,30,0,0,1,3.93-4.93,38.32,38.32,0,0,1,9.38-7.12,37.12,37.12,0,0,1,8-3.15,38.38,38.38,0,0,1,7.21-1.17c.91-.07,1.85-.1,2.81-.1a38.44,38.44,0,0,1,8.93,1,34.05,34.05,0,0,1,9.27,3.69,34.16,34.16,0,0,1,9.7,8.37,24.61,24.61,0,0,1,2.32,3.39S937.23,446.59,914.28,446.75Z" transform="translate(-144.18 -222.64)"/><path class="cls-7" d="M944.5,427.52s-7.27,19.07-30.22,19.23S883,427.52,883,427.52a30,30,0,0,1,3.93-4.93,38.32,38.32,0,0,1,9.38-7.12,37.12,37.12,0,0,1,8-3.15,38.38,38.38,0,0,1,7.21-1.17c.91-.07,1.85-.1,2.81-.1a38.44,38.44,0,0,1,8.93,1,34.05,34.05,0,0,1,9.27,3.69,34.16,34.16,0,0,1,9.7,8.37A24.61,24.61,0,0,1,944.5,427.52Z" transform="translate(-144.18 -222.64)"/><path class="cls-5" d="M946.23,419.21a7.73,7.73,0,0,0-2.31,2.28,4.92,4.92,0,0,0-.61,1.37,4.07,4.07,0,0,0-.13,1.38l-2-.21a5.94,5.94,0,0,1,.76-1.81,6.6,6.6,0,0,1,1.22-1.4A8.44,8.44,0,0,1,946.23,419.21Z" transform="translate(-144.18 -222.64)"/><path class="cls-5" d="M940.57,413.25a7.52,7.52,0,0,1-.22,3.72,5.78,5.78,0,0,1-1,1.77,6.25,6.25,0,0,1-1.6,1.38L937,418.3a4.54,4.54,0,0,0,1.36-.63,4.31,4.31,0,0,0,1.11-1.14A7.09,7.09,0,0,0,940.57,413.25Z" transform="translate(-144.18 -222.64)"/><path class="cls-5" d="M933.33,408.38a6.23,6.23,0,0,1,1.14,3.87,8.46,8.46,0,0,1-.35,2.1,11.76,11.76,0,0,1-.81,2l-1.65-1.13a10.21,10.21,0,0,0,1.08-1.44,7.3,7.3,0,0,0,.74-1.66A5.74,5.74,0,0,0,933.33,408.38Z" transform="translate(-144.18 -222.64)"/><path class="cls-5" d="M922.32,405.23a9,9,0,0,1,2.26,3.22,4.68,4.68,0,0,1,.31,2.17,4.36,4.36,0,0,1-1,2.18l-1.36-1.46a2.63,2.63,0,0,0,.9-1,3.34,3.34,0,0,0,.18-1.6A8.61,8.61,0,0,0,922.32,405.23Z" transform="translate(-144.18 -222.64)"/><polygon class="cls-5" points="767.29 181.96 768.29 188.51 766.29 188.51 767.29 181.96"/><path class="cls-5" d="M902.66,405.23a4.7,4.7,0,0,0,0,3.68,6,6,0,0,0,1,1.5c.19.23.42.43.63.64l.7.56-1.39,1.44-.65-.87c-.18-.32-.39-.61-.55-.94a7.19,7.19,0,0,1-.68-2.07A5.18,5.18,0,0,1,902.66,405.23Z" transform="translate(-144.18 -222.64)"/><path class="cls-5" d="M895.27,411.05a3.18,3.18,0,0,0,.27,2.25,2.89,2.89,0,0,0,.63.83,4.49,4.49,0,0,0,.83.62l-1.39,1.44a6.17,6.17,0,0,1-.7-1.26,4.23,4.23,0,0,1-.34-1.38A3.71,3.71,0,0,1,895.27,411.05Z" transform="translate(-144.18 -222.64)"/><path class="cls-5" d="M886.94,415.47a6.55,6.55,0,0,0-1,3.65,3.24,3.24,0,0,0,.53,1.59,4.06,4.06,0,0,0,1.16,1.14l-1.33,1.5a5.92,5.92,0,0,1-1.2-2,4.45,4.45,0,0,1-.15-2.28,5.91,5.91,0,0,1,.76-2A7.87,7.87,0,0,1,886.94,415.47Z" transform="translate(-144.18 -222.64)"/><path class="cls-15" d="M1244.38,832.4" transform="translate(-144.18 -222.64)"/><path class="cls-15" d="M1329.82,667.75" transform="translate(-144.18 -222.64)"/><path class="cls-15" d="M1326.84,1007.52" transform="translate(-144.18 -222.64)"/><path class="cls-15" d="M1444.69,703.58" transform="translate(-144.18 -222.64)"/><path class="cls-15" d="M1383.9,689.89" transform="translate(-144.18 -222.64)"/></g><g id="Lag_7" data-name="Lag 7"><path class="cls-20" d="M822,966.09c0,1.42,0,2.83-.13,4.23,0,0-3.19-4-3.52-4.32a146.33,146.33,0,0,0-15.82-19.31h0c-.21-.61-6.87-20.89,0-25.59,5.61-3.84,12.49,12.57,15,19.11h0c.6,1.58.94,2.58.94,2.58A95.53,95.53,0,0,1,822,966.09Z" transform="translate(-144.18 -222.64)"/><path class="cls-20" d="M821.89,970.32s-35.36-5.62-39-31.31a2.59,2.59,0,0,1,2.83-2.9c3.06.27,8.52,2.29,16.84,10.57h0A146.33,146.33,0,0,1,818.37,966C818.7,966.33,821.89,970.32,821.89,970.32Z" transform="translate(-144.18 -222.64)"/><path class="cls-6" d="M866.39,1051.9q-1.56-1.9-3-3.77s-4-30.85,10.61-26.55S866.39,1051.9,866.39,1051.9Z" transform="translate(-144.18 -222.64)"/><path class="cls-7" d="M821.89,970.32s1,27.24,41.45,77.81" transform="translate(-144.18 -222.64)"/><path class="cls-7" d="M866.39,1051.9c43.44,53,31.78,101.46,31.78,101.46" transform="translate(-144.18 -222.64)"/><path class="cls-20" d="M822,966.09a95.53,95.53,0,0,0-3.57-23.3s-.34-1-.94-2.58h0c.07-.67,3.35-30.22,18.4-24.1C851.14,922.29,822,966.09,822,966.09Z" transform="translate(-144.18 -222.64)"/></g><g id="Lag_8" data-name="Lag 8"><path class="cls-7" d="M963.78,1081.53c27.1-34.28,44.08-72.81,44.08-72.81" transform="translate(-144.18 -222.64)"/><path class="cls-7" d="M953,1153.36s-15.74-36.18,9.33-69.95" transform="translate(-144.18 -222.64)"/><path class="cls-6" d="M963.78,1081.53c-.49.63-1,1.25-1.44,1.88,0,0-12.27-28.65-4.11-31.51S963.78,1081.53,963.78,1081.53Z" transform="translate(-144.18 -222.64)"/><path class="cls-7" d="M1012.74,987.91v0" transform="translate(-144.18 -222.64)"/><path class="cls-21" d="M1012.74,987.88a171.68,171.68,0,0,0-4.88,20.84s-17.09-26.86-6.54-39.91a4,4,0,0,1,5.62-.68C1009.72,970.32,1013.18,975.51,1012.74,987.88Z" transform="translate(-144.18 -222.64)"/><path class="cls-21" d="M1025.89,990.46a161.19,161.19,0,0,1-18,18.26,171.68,171.68,0,0,1,4.88-20.84c3.85-12.44,10-25,18.23-20.38C1038.41,971.66,1033.22,981.46,1025.89,990.46Z" transform="translate(-144.18 -222.64)"/><path class="cls-21" d="M1036.8,1004.54a43.21,43.21,0,0,1-18.68,4.18h-10.26a161.19,161.19,0,0,0,18-18.26s19.91-13.39,23.63-1.41C1051.6,995.75,1044,1001.12,1036.8,1004.54Z" transform="translate(-144.18 -222.64)"/></g><g id="Lag_10" data-name="Lag 10"><path class="cls-22" d="M1433.54,962.82a94.44,94.44,0,0,1-15.41-15.06l-.11-.13c-6.36-8.12-11.2-18.2-6.08-26.86a8.18,8.18,0,0,1,7.16-4.09c9,.2,12.74,10.35,14.16,21.08A122.7,122.7,0,0,1,1433.54,962.82Z" transform="translate(-144.18 -222.64)"/><path class="cls-7" d="M1448.41,1050.76c2.75,27.27,4.94,61.29,5.56,102.6" transform="translate(-144.18 -222.64)"/><path class="cls-7" d="M1433.54,962.82s8.24,25.66,14.3,82.42" transform="translate(-144.18 -222.64)"/><path class="cls-6" d="M1448.41,1050.76s-35.29-5.51-27.08-18.2,26.51,12.68,26.51,12.68Q1448.13,1048,1448.41,1050.76Z" transform="translate(-144.18 -222.64)"/><path class="cls-22" d="M1433.54,962.82a122.7,122.7,0,0,0-.28-25.06s10.28-24.93,20.71-18.71S1433.54,962.82,1433.54,962.82Z" transform="translate(-144.18 -222.64)"/><path class="cls-22" d="M1433.54,962.82s-40.86,2-39.34-15.06c1.67-24.26,22.12-2,23.82-.13l.11.13A94.44,94.44,0,0,0,1433.54,962.82Z" transform="translate(-144.18 -222.64)"/></g><g id="Lag_11" data-name="Lag 11"><path class="cls-7" d="M1502.78,1027.09c34.1-56.35,75.54-98.2,75.54-98.2" transform="translate(-144.18 -222.64)"/><path class="cls-7" d="M1502.72,1027.18h0c-23.14,38.24-42.9,83.15-44,126.18" transform="translate(-144.18 -222.64)"/><path class="cls-20" d="M1592,879c-10.87,23.26-13.72,49.92-13.72,49.92s-20.66-47.55-4.6-75.76S1592,879,1592,879Z" transform="translate(-144.18 -222.64)"/><path class="cls-6" d="M1537.42,1015.76c-.24.49-4.94,13.07-34.7,11.42l.06-.09C1504,1025.6,1520,1006.13,1537.42,1015.76Z" transform="translate(-144.18 -222.64)"/><path class="cls-20" d="M1611.78,891.2h0c-6.79,11.23-17.3,24-33.45,37.69,0,0,2.85-26.66,13.72-49.92,6.2-13.28,15-25.44,27.4-30.91a3,3,0,0,1,4.19,2.48C1624.14,857.16,1623.47,871.87,1611.78,891.2Z" transform="translate(-144.18 -222.64)"/><path class="cls-20" d="M1656.13,888.52a17.89,17.89,0,0,1-4.06,8.82c-19.32,22.72-73.75,31.55-73.75,31.55,16.15-13.67,26.66-26.46,33.45-37.69h0C1612.65,890.64,1660.45,860.51,1656.13,888.52Z" transform="translate(-144.18 -222.64)"/></g></svg>